<?xml version="1.0" encoding="UTF-8"?>
<svg id="Capa_1" xmlns="http://www.w3.org/2000/svg" viewBox="0 0 1190.55 284.54">
  <defs>
    <style>
      .cls-1, .cls-2, .cls-3 {
        fill: #fff;
      }

      .cls-4 {
        letter-spacing: .09em;
      }

      .cls-5 {
        letter-spacing: .07em;
      }

      .cls-6 {
        letter-spacing: .07em;
      }

      .cls-7 {
        letter-spacing: .08em;
      }

      .cls-8 {
        letter-spacing: .09em;
      }

      .cls-9 {
        letter-spacing: .07em;
      }

      .cls-10 {
        letter-spacing: .1em;
      }

      .cls-11 {
        letter-spacing: .08em;
      }

      .cls-12 {
        letter-spacing: .06em;
      }

      .cls-13 {
        letter-spacing: .08em;
      }

      .cls-2 {
        font-family: MenoText-Bold, 'Meno Text';
        font-size: 65.51px;
        font-weight: 700;
      }

      .cls-3 {
        font-family: MenoText-Regular, 'Meno Text';
        font-size: 34.75px;
      }

      .cls-14 {
        letter-spacing: .03em;
      }

      .cls-15 {
        letter-spacing: .08em;
      }

      .cls-16 {
        letter-spacing: -.05em;
      }

      .cls-17 {
        letter-spacing: .05em;
      }

      .cls-18 {
        letter-spacing: .06em;
      }

      .cls-19 {
        letter-spacing: .08em;
      }
    </style>
  </defs>
  <path class="cls-1" d="M803.81,116.69c.05,9.19-7.14,16.44-16.34,16.49-9.19.04-16.68-7.18-16.73-16.13-.05-9.59,7.04-16.66,16.78-16.73,9.26-.07,16.24,6.95,16.29,16.38Z"/>
  <g>
    <path class="cls-1" d="M118.28,104.53c.51.45,1.03.88,1.53,1.34,7.86,7.43,15.92,14.66,23.62,22.26,2.16,2.13,4.36,4.23,6.51,6.37.55.54.88.56,1.42-.02,5.58-6.04,11.25-11.99,16.76-18.09,6.61-7.32,13.44-14.45,20.1-21.73,1.08-1.18.76-1.14,1.93-.06,10.93,10.11,21.84,20.25,32.79,30.34,2.05,1.89,4.14,3.73,6.15,5.65,4.52,4.29,9.13,8.48,13.7,12.71.69.64.73,1,.07,1.7-3.61,3.81-7.16,7.67-10.73,11.53-10.27,11.1-20.54,22.2-30.82,33.3-1.44,1.55-2.89,3.08-4.31,4.65-.4.45-.63.47-1.08.05-5.19-4.83-10.41-9.64-15.62-14.46-5.5-5.09-11.03-10.14-16.49-15.27-3.73-3.51-7.61-6.87-11.31-10.42-4.31-4.13-8.71-8.15-13.11-12.19-.78-.71-1.3-1.56-1.8-2.45-6.2-11.16-12.41-22.32-18.61-33.49-.3-.53-.55-1.09-.82-1.64.04-.03.09-.07.13-.1Z"/>
    <path class="cls-1" d="M140.81,236.66c-17.87.15-32.59-14.49-32.7-32.17-.12-18.48,14.11-32.9,32.55-32.99,17.93-.09,32.34,14.48,32.64,31.99.31,18.33-14.44,33.17-32.49,33.17Z"/>
    <path class="cls-1" d="M98.48,184.37c-.31.4-.44.59-.59.76-4.37,4.72-8.75,9.43-13.1,14.17-.53.58-.8.27-1.18-.09-5.32-4.94-10.65-9.87-15.98-14.81-9.76-9.03-19.52-18.07-29.28-27.1-1.91-1.77-3.8-3.56-5.74-5.31-.52-.47-.6-.76-.07-1.32,4.24-4.53,8.43-9.11,12.65-13.66,1.01-1.09,1.01-1.08,2.09-.08,6.83,6.37,13.67,12.73,20.51,19.09,9.98,9.29,19.95,18.58,29.94,27.86.21.2.5.32.75.48Z"/>
    <path class="cls-1" d="M172.27,75.21c-.14.18-.28.41-.45.59-6.06,6.52-12.13,13.03-18.19,19.55-.46.49-.73.56-1.26.07-4.45-4.18-8.92-8.34-13.39-12.49-7.03-6.54-14.06-13.08-21.1-19.63-.58-.54-1.13-1.12-1.75-1.6-.57-.44-.49-.77-.04-1.24,2.44-2.6,4.85-5.23,7.27-7.84,3.59-3.87,7.2-7.73,10.77-11.62.48-.53.76-.59,1.32-.08,6.23,5.8,12.49,11.58,18.74,17.36,5.83,5.4,11.66,10.82,17.48,16.23.21.2.49.34.59.7Z"/>
    <path class="cls-1" d="M107.71,126.09c-12.03-5.97-23.93-11.87-35.92-17.82,1.06-1.12,1.97-2.22,3.05-3.22.95-.88,1.72-1.99,2.63-2.96,2.84-2.98,5.63-6.01,8.44-9.02.5-.53,1.04-1.02,1.48-1.59.48-.62.7-.43,1.02.14,2.61,4.63,5.23,9.25,7.85,13.87,3.63,6.4,7.26,12.81,10.88,19.21.22.39.51.75.57,1.4Z"/>
    <path class="cls-1" d="M85.24,137.06c3.71,1.69,7.43,3.37,11.14,5.06,9.34,4.24,18.68,8.49,28.03,12.74q1.08.49.3,1.33c-2.51,2.71-5.03,5.41-7.51,8.16-.56.62-.88.7-1.56.1-9.77-8.72-19.58-17.4-29.38-26.09-.41-.36-.82-.71-1.23-1.07.06-.07.13-.14.19-.22Z"/>
    <path class="cls-1" d="M176.97,217.13c2.91-9.54,2.52-18.86-1.23-28.1,3.28,3.04,6.57,6.08,9.85,9.13,1.43,1.32,2.84,2.66,4.29,3.96.4.36.47.6.08,1.02-4.34,4.66-8.66,9.33-12.99,13.99Z"/>
    <path class="cls-1" d="M126.1,169.3c3.45-3.73,6.69-7.24,9.93-10.74.89-.97,1.8-1.93,2.69-2.89.27-.29.48-.49.88-.11,4.68,4.35,9.37,8.69,14.22,13.18-9.36-3.17-18.45-3.03-27.73.57Z"/>
    <path class="cls-1" d="M129.7,241.36c1.74.34,3.48.74,5.23,1,6.91,1.04,13.63.26,20.12-2.35.21-.08.43-.14.75-.09-.55.62-1.09,1.23-1.64,1.84-.55.61-1.12,1.21-1.68,1.82-2.96,3.2-5.93,6.39-8.87,9.6-.47.51-.76.61-1.33.07-4.08-3.85-8.2-7.66-12.31-11.49-.11-.11-.19-.25-.29-.38h.01Z"/>
    <path class="cls-1" d="M104.29,192.95c-1.28,4.28-1.88,8.44-1.77,12.7.1,3.83.77,7.55,1.97,11.18.14.42.2.87.3,1.31-.62.11-.83-.45-1.16-.75-3.7-3.39-7.36-6.81-11.07-10.2-.62-.57-.75-.93-.1-1.61,3.74-3.96,7.42-7.97,11.13-11.96.18-.19.38-.36.71-.68Z"/>
    <path class="cls-1" d="M129.69,241.38s-.06-.01-.09-.03c-.01,0,0-.04,0-.07.04.03.07.06.11.09,0,0-.01.01-.01.01Z"/>
  </g>
  <text class="cls-2" transform="translate(268.04 142.42)"><tspan class="cls-9" x="0" y="0">M</tspan><tspan class="cls-14" x="73.05" y="0">A</tspan><tspan class="cls-10" x="129.65" y="0">T</tspan><tspan class="cls-5" x="184.61" y="0">T</tspan><tspan class="cls-15" x="237.61" y="0">EO</tspan><tspan class="cls-5" x="349.9" y="0">Z</tspan><tspan class="cls-15" x="401.98" y="0">ZI </tspan></text>
  <text class="cls-2" transform="translate(830.09 142.63)"><tspan class="cls-19" x="0" y="0">L</tspan><tspan class="cls-16" x="49.72" y="0">A</tspan><tspan class="cls-18" x="101.08" y="0">V</tspan><tspan class="cls-13" x="160.31" y="0">ILLA</tspan></text>
  <text class="cls-3" transform="translate(323.9 193.17)"><tspan class="cls-7" x="0" y="0">Estudio integ</tspan><tspan class="cls-17" x="245.67" y="0">r</tspan><tspan class="cls-7" x="262" y="0">al de Com</tspan><tspan class="cls-6" x="443.69" y="0">e</tspan><tspan class="cls-7" x="462.46" y="0">rcio </tspan><tspan class="cls-12" x="544.95" y="0">I</tspan><tspan class="cls-11" x="561.63" y="0">nt</tspan><tspan class="cls-6" x="600.89" y="0">e</tspan><tspan class="cls-4" x="619.65" y="0">r</tspan><tspan class="cls-11" x="637.38" y="0">n</tspan><tspan class="cls-8" x="661.18" y="0">a</tspan><tspan class="cls-11" x="681.44" y="0">cional</tspan></text>
</svg>